<?xml version="1.0" standalone="no"?>
<!DOCTYPE svg PUBLIC "-//W3C//DTD SVG 20010904//EN"
 "http://www.w3.org/TR/2001/REC-SVG-20010904/DTD/svg10.dtd">
<svg version="1.0" xmlns="http://www.w3.org/2000/svg"
 width="720.000000pt" height="720.000000pt" viewBox="0 0 720.000000 720.000000"
 preserveAspectRatio="xMidYMid meet">
<metadata>
Created by potrace 1.11, written by Peter Selinger 2001-2013
</metadata>
<g transform="translate(0.000000,720.000000) scale(0.100000,-0.100000)"
fill="#000000" stroke="none">
<path d="M3308 7195 c-2 -2 -35 -7 -73 -10 -64 -5 -174 -20 -220 -29 -11 -2
-40 -7 -65 -11 -63 -10 -202 -41 -288 -66 -40 -12 -78 -22 -85 -23 -7 -1 -37
-10 -67 -20 -74 -24 -79 -25 -85 -26 -3 0 -26 -10 -52 -21 -27 -11 -67 -27
-91 -35 -93 -32 -480 -221 -502 -244 -3 -3 -27 -19 -55 -35 -65 -37 -250 -164
-328 -226 -142 -112 -211 -173 -342 -304 -196 -197 -307 -333 -459 -564 -93
-141 -124 -193 -203 -341 -36 -67 -141 -305 -163 -370 -7 -19 -16 -44 -21 -55
-14 -34 -76 -228 -84 -265 -3 -15 -47 -200 -55 -230 -5 -19 -12 -57 -16 -85
-5 -27 -9 -52 -9 -55 -1 -3 -5 -32 -9 -65 -5 -33 -10 -69 -12 -79 -2 -11 -7
-58 -11 -105 -13 -141 -7 -726 7 -726 1 0 3 -18 5 -40 4 -52 32 -222 59 -355
8 -37 51 -196 72 -265 10 -33 18 -63 18 -67 1 -3 4 -10 8 -14 5 -4 8 -14 8
-21 0 -45 171 -431 270 -608 81 -147 270 -424 356 -522 10 -11 35 -41 54 -65
68 -84 347 -354 450 -437 58 -46 115 -92 128 -102 12 -10 26 -19 31 -19 5 0
11 -4 13 -8 3 -9 192 -137 250 -171 18 -10 62 -35 98 -56 97 -56 244 -128 345
-170 50 -20 104 -43 120 -50 26 -12 225 -79 310 -105 153 -46 432 -100 620
-118 156 -15 813 -5 845 13 3 1 28 5 55 9 46 5 76 10 130 21 94 18 136 27 207
45 46 12 90 23 98 25 8 2 16 4 18 5 1 2 5 3 10 4 4 2 27 9 52 16 25 7 47 14
50 15 41 9 277 99 375 143 462 208 901 531 1225 902 30 35 63 73 74 84 52 59
214 284 288 401 135 212 264 485 352 742 45 133 109 370 121 453 4 25 8 48 11
51 2 4 6 24 9 45 4 22 11 68 16 104 6 36 14 94 17 130 9 88 9 702 -1 769 -14
107 -37 256 -43 281 -3 14 -7 36 -10 50 -52 275 -169 611 -312 895 -261 520
-631 955 -1103 1299 -57 41 -109 80 -116 86 -7 5 -15 10 -18 10 -3 0 -32 17
-63 38 -191 128 -508 280 -762 365 -89 30 -126 41 -205 63 -54 15 -186 47
-210 51 -16 2 -46 8 -65 13 -19 5 -55 12 -80 15 -25 3 -52 8 -60 10 -8 2 -44
7 -80 10 -36 4 -74 10 -85 12 -24 7 -660 14 -667 8z"/>
</g>
</svg>
